<svg width="154" height="41" viewBox="0 0 154 41" fill="none" xmlns="http://www.w3.org/2000/svg">
<g clip-path="url(#clip0_0_18)">
<path d="M24.8698 39.5888C23.7337 40.7249 21.9231 40.7485 20.8225 39.6479L0.810641 19.6538C-0.289951 18.5533 -0.260365 16.7426 0.869812 15.6065L15.9645 0.5L39.9645 24.4822L24.8698 39.5888Z" fill="#309255"/>
<path d="M15.963 0.499643L12.2915 4.17529L36.2963 28.1529L39.9678 24.4773L15.963 0.499643Z" fill="#1D2733"/>
<path d="M20.7574 39.63C21.8935 40.7661 23.7041 40.7957 24.8047 39.6951L44.8225 19.701C45.9231 18.6004 45.8935 16.7898 44.7633 15.6537L29.6686 0.54126L5.66272 24.5176L20.7574 39.63Z" fill="#309255"/>
<path opacity="0.5" d="M34.1539 21.5235C34.9527 22.3223 36.2308 22.346 37.0119 21.5709L38.3373 20.3815C39.1124 19.6064 39.0947 18.3282 38.2959 17.5235L31.1775 10.4407L27.0414 14.4407L34.1539 21.5235Z" fill="white"/>
<path d="M29.6692 0.539029L5.66779 24.5234L9.34032 28.1986L33.3417 4.21416L29.6692 0.539029Z" fill="#FFA200"/>
</g>
<path d="M55.6331 27.9468V7.09574H69.2459V10.1638H59.4459V15.883H68.3523V18.8617H59.4459V24.8787H69.2459V27.9468H55.6331Z" fill="#1D2733"/>
<path d="M79.556 28.3043C78.1659 28.3043 76.9248 27.9667 75.8326 27.2915C74.7404 26.6163 73.8766 25.6929 73.2411 24.5213C72.6056 23.3496 72.2879 22.0191 72.2879 20.5298C72.2879 19.0404 72.6056 17.7199 73.2411 16.5681C73.8766 15.3965 74.7404 14.483 75.8326 13.8277C76.9248 13.1525 78.1659 12.8149 79.556 12.8149C80.6681 12.8149 81.6411 13.0234 82.4751 13.4404C83.3092 13.8574 83.9844 14.4433 84.5007 15.1979V6.5H88.3134V27.9468H84.9177L84.5007 25.8319C84.0241 26.4872 83.3886 27.0631 82.5943 27.5596C81.8198 28.056 80.8071 28.3043 79.556 28.3043ZM80.3602 24.9681C81.5915 24.9681 82.5943 24.561 83.3688 23.7468C84.1631 22.9128 84.5602 21.8504 84.5602 20.5596C84.5602 19.2688 84.1631 18.2163 83.3688 17.4021C82.5943 16.5681 81.5915 16.1511 80.3602 16.1511C79.1489 16.1511 78.1461 16.5582 77.3517 17.3723C76.5574 18.1865 76.1602 19.239 76.1602 20.5298C76.1602 21.8206 76.5574 22.883 77.3517 23.717C78.1461 24.5511 79.1489 24.9681 80.3602 24.9681Z" fill="#1D2733"/>
<path d="M97.7364 28.3043C95.8896 28.3043 94.4599 27.7284 93.4471 26.5766C92.4542 25.4248 91.9577 23.7369 91.9577 21.5128V13.1723H95.7407V21.1553C95.7407 22.4262 95.9989 23.3993 96.5152 24.0745C97.0315 24.7496 97.8457 25.0872 98.9577 25.0872C100.01 25.0872 100.874 24.7099 101.549 23.9553C102.244 23.2007 102.592 22.1482 102.592 20.7979V13.1723H106.405V27.9468H103.039L102.741 25.4447C102.284 26.3184 101.619 27.0135 100.745 27.5298C99.8911 28.0461 98.8882 28.3043 97.7364 28.3043Z" fill="#1D2733"/>
<path d="M110.319 27.9468V13.1723H113.684L114.012 15.1681C114.489 14.4532 115.114 13.8872 115.889 13.4702C116.683 13.0333 117.597 12.8149 118.629 12.8149C120.913 12.8149 122.531 13.6986 123.484 15.466C124.021 14.6518 124.736 14.0064 125.629 13.5298C126.543 13.0532 127.536 12.8149 128.608 12.8149C130.534 12.8149 132.014 13.3908 133.046 14.5426C134.079 15.6943 134.595 17.3823 134.595 19.6064V27.9468H130.782V19.9638C130.782 18.6929 130.534 17.7199 130.038 17.0447C129.561 16.3695 128.816 16.0319 127.804 16.0319C126.771 16.0319 125.937 16.4092 125.302 17.1638C124.686 17.9184 124.378 18.9709 124.378 20.3213V27.9468H120.565V19.9638C120.565 18.6929 120.317 17.7199 119.821 17.0447C119.324 16.3695 118.56 16.0319 117.527 16.0319C116.514 16.0319 115.69 16.4092 115.055 17.1638C114.439 17.9184 114.131 18.9709 114.131 20.3213V27.9468H110.319Z" fill="#1D2733"/>
<path d="M139.567 34.5L142.993 26.9638H142.099L136.35 13.1723H140.491L144.631 23.5681L148.95 13.1723H153.001L143.618 34.5H139.567Z" fill="#1D2733"/>
<defs>
<clipPath id="clip0_0_18">
<rect width="45.6331" height="40" fill="white" transform="translate(0 0.5)"/>
</clipPath>
</defs>
</svg>
