<svg width="20" height="20" viewBox="0 0 20 20" fill="none" xmlns="http://www.w3.org/2000/svg">
<path fill-rule="evenodd" clip-rule="evenodd" d="M2.74059 3.40614L2.80104 3.34296C4.40723 1.73663 5.45319 1.31085 6.56921 1.95261C6.89024 2.13722 7.1912 2.39562 7.60044 2.81127L8.85575 4.11295C9.54911 4.86953 9.70673 5.59524 9.48096 6.44514L9.44986 6.55765L9.41533 6.66953L9.24752 7.16188C8.88834 8.26603 9.0383 8.88899 10.3162 10.1666C11.6451 11.4952 12.2655 11.6038 13.4548 11.1882L13.6667 11.1146L13.923 11.0313L14.0352 11.0002C14.9386 10.7592 15.7017 10.9515 16.511 11.7603L17.5224 12.7372L17.8202 13.0301C18.1503 13.3667 18.3684 13.6334 18.5296 13.9153C19.1673 15.031 18.7411 16.0763 17.0886 17.7227L16.9314 17.882C16.6846 18.1198 16.4541 18.2901 16.1155 18.4509C15.5471 18.7208 14.8755 18.8226 14.0952 18.714C12.1723 18.4466 9.73346 16.9294 6.64322 13.84C6.39167 13.5885 6.15074 13.3419 5.9202 13.1L5.47289 12.6226C1.28134 8.06863 0.911563 5.27116 2.6293 3.51668L2.74059 3.40614ZM6.58867 3.56703C6.31717 3.29937 6.11996 3.13621 5.94609 3.03622C5.56148 2.81506 5.14624 2.90855 4.37773 3.56999L4.13626 3.78571C4.09414 3.82459 4.05106 3.86495 4.00697 3.90683L3.73008 4.17652L3.70513 4.20769L3.51741 4.39629C3.06379 4.85963 2.84891 5.42512 3.03408 6.39765C3.33792 7.9935 4.72867 10.1584 7.52699 12.956C10.4427 15.871 12.6643 17.253 14.2673 17.476C15.2018 17.6059 15.6785 17.3796 16.1646 16.8816L16.5353 16.5075C16.7092 16.3256 16.8577 16.1607 16.9831 16.0101L17.1542 15.7945C17.5914 15.2121 17.6313 14.8628 17.4444 14.5357C17.3732 14.4112 17.2697 14.2747 17.1191 14.108L16.9147 13.8921L16.7938 13.7711L15.5177 12.5389C15.0913 12.1457 14.7999 12.0899 14.3575 12.2079L14.2297 12.2447L13.7012 12.4241C12.1677 12.9194 11.0615 12.6792 9.43244 11.0506C7.74524 9.3638 7.54736 8.2374 8.11268 6.61557L8.14894 6.51135L8.24922 6.20921L8.29852 6.01662C8.38594 5.59748 8.28613 5.30524 7.83557 4.8546C7.81701 4.83605 7.79628 4.81514 7.77372 4.79226L6.58867 3.56703Z" fill="#56616F"/>
</svg>
