<svg width="20" height="21" viewBox="0 0 20 21" fill="none" xmlns="http://www.w3.org/2000/svg">
<path fill-rule="evenodd" clip-rule="evenodd" d="M13.0965 14.6448H7.07983C6.73483 14.6448 6.45483 14.3648 6.45483 14.0198C6.45483 13.6748 6.73483 13.3948 7.07983 13.3948H13.0965C13.4415 13.3948 13.7215 13.6748 13.7215 14.0198C13.7215 14.3648 13.4415 14.6448 13.0965 14.6448Z" fill="#309255"/>
<path fill-rule="evenodd" clip-rule="evenodd" d="M13.0965 11.156H7.07983C6.73483 11.156 6.45483 10.876 6.45483 10.531C6.45483 10.186 6.73483 9.90601 7.07983 9.90601H13.0965C13.4415 9.90601 13.7215 10.186 13.7215 10.531C13.7215 10.876 13.4415 11.156 13.0965 11.156Z" fill="#309255"/>
<path fill-rule="evenodd" clip-rule="evenodd" d="M9.37542 7.67529H7.07959C6.73459 7.67529 6.45459 7.39529 6.45459 7.05029C6.45459 6.70529 6.73459 6.42529 7.07959 6.42529H9.37542C9.72042 6.42529 10.0004 6.70529 10.0004 7.05029C10.0004 7.39529 9.72042 7.67529 9.37542 7.67529Z" fill="#309255"/>
<mask id="mask0_0_643" style="mask-type:luminance" maskUnits="userSpaceOnUse" x="2" y="2" width="16" height="17">
<path fill-rule="evenodd" clip-rule="evenodd" d="M2.5 2.16675H17.6372V18.7582H2.5V2.16675Z" fill="white"/>
</mask>
<g mask="url(#mask0_0_643)">
<path fill-rule="evenodd" clip-rule="evenodd" d="M13.2573 3.4165L6.84976 3.41984C4.90976 3.4315 3.74976 4.6315 3.74976 6.63067V14.294C3.74976 16.3065 4.92059 17.5082 6.87976 17.5082L13.2873 17.5057C15.2273 17.494 16.3873 16.2923 16.3873 14.294V6.63067C16.3873 4.61817 15.2173 3.4165 13.2573 3.4165ZM6.88059 18.7582C4.26059 18.7582 2.49976 16.964 2.49976 14.294V6.63067C2.49976 3.9365 4.20559 2.18567 6.84559 2.16984L13.2564 2.1665H13.2573C15.8773 2.1665 17.6373 3.96067 17.6373 6.63067V14.294C17.6373 16.9873 15.9314 18.739 13.2914 18.7557L6.88059 18.7582Z" fill="#309255"/>
</g>
</svg>
