<svg width="32" height="32" viewBox="0 0 32 32" fill="none" xmlns="http://www.w3.org/2000/svg">
<circle cx="16" cy="15.9995" r="15.5" stroke="#309255"/>
<path d="M12.0572 23.9429C11.1057 23.8997 10.5888 23.7413 10.245 23.6072C9.7894 23.4298 9.46462 23.2187 9.12272 22.8773C8.78081 22.5358 8.5692 22.2111 8.39278 21.7555C8.25869 21.4117 8.10034 20.8948 8.05706 19.9433C8.00951 18.9147 8 18.6061 8 16.0002C8 13.3943 8.01046 13.0862 8.05659 12.0567C8.09986 11.1052 8.25916 10.5892 8.39231 10.2445C8.56968 9.78891 8.78129 9.46413 9.12224 9.12175C9.46367 8.78032 9.78845 8.56824 10.2445 8.39182C10.5883 8.25772 11.1052 8.09937 12.0567 8.0561C13.0857 8.00902 13.3948 7.99951 15.9998 7.99951C18.6056 7.99951 18.9138 8.00997 19.9433 8.0561C20.8948 8.09937 21.4108 8.25867 21.7555 8.39182C22.2111 8.56824 22.5359 8.78032 22.8778 9.12175C23.2197 9.46318 23.4303 9.78844 23.6077 10.244C23.7418 10.5878 23.9001 11.1047 23.9434 12.0562C23.9905 13.0857 24 13.3939 24 15.9997C24 18.6047 23.9905 18.9138 23.9434 19.9433C23.9001 20.8948 23.7408 21.4117 23.6077 21.7555C23.4303 22.2111 23.2192 22.5358 22.8778 22.8773C22.5363 23.2187 22.2111 23.4298 21.7555 23.6072C21.4117 23.7413 20.8948 23.8997 19.9433 23.9429C18.9147 23.99 18.6056 23.9995 15.9998 23.9995C13.3948 23.9995 13.0857 23.9905 12.0572 23.9429Z" fill="#309255"/>
<path d="M12.0572 23.9429C11.1057 23.8997 10.5888 23.7413 10.245 23.6072C9.7894 23.4298 9.46462 23.2187 9.12272 22.8773C8.78081 22.5358 8.5692 22.2111 8.39278 21.7555C8.25869 21.4117 8.10034 20.8948 8.05706 19.9433C8.00951 18.9147 8 18.6061 8 16.0002C8 13.3943 8.01046 13.0862 8.05659 12.0567C8.09986 11.1052 8.25916 10.5892 8.39231 10.2445C8.56968 9.78891 8.78129 9.46413 9.12224 9.12175C9.46367 8.78032 9.78845 8.56824 10.2445 8.39182C10.5883 8.25772 11.1052 8.09937 12.0567 8.0561C13.0857 8.00902 13.3948 7.99951 15.9998 7.99951C18.6056 7.99951 18.9138 8.00997 19.9433 8.0561C20.8948 8.09937 21.4108 8.25867 21.7555 8.39182C22.2111 8.56824 22.5359 8.78032 22.8778 9.12175C23.2197 9.46318 23.4303 9.78844 23.6077 10.244C23.7418 10.5878 23.9001 11.1047 23.9434 12.0562C23.9905 13.0857 24 13.3939 24 15.9998C24 18.6047 23.9905 18.9138 23.9434 19.9433C23.9001 20.8948 23.7408 21.4117 23.6077 21.7555C23.4303 22.2111 23.2192 22.5358 22.8778 22.8773C22.5363 23.2187 22.2111 23.4298 21.7555 23.6072C21.4117 23.7413 20.8948 23.8997 19.9433 23.9429C18.9147 23.99 18.6056 23.9995 15.9998 23.9995C13.3948 23.9995 13.0857 23.9905 12.0572 23.9429Z" fill="#309255"/>
<path d="M14.1847 15.9429C14.1847 14.9716 14.972 14.1839 15.9433 14.1839C16.9147 14.1839 17.7024 14.9716 17.7024 15.9429C17.7024 16.9143 16.9147 17.702 15.9433 17.702C14.972 17.702 14.1847 16.9143 14.1847 15.9429ZM13.2338 15.9429C13.2338 17.4394 14.4469 18.6524 15.9433 18.6524C17.4398 18.6524 18.6528 17.4394 18.6528 15.9429C18.6528 14.4465 17.4398 13.2334 15.9433 13.2334C14.4469 13.2334 13.2339 14.4464 13.2339 15.9429M18.1269 13.126C18.1269 13.2512 18.164 13.3737 18.2335 13.4778C18.303 13.582 18.4019 13.6632 18.5176 13.7111C18.6333 13.7591 18.7606 13.7717 18.8834 13.7473C19.0063 13.7229 19.1191 13.6627 19.2077 13.5742C19.2963 13.4856 19.3566 13.3728 19.3811 13.25C19.4056 13.1272 19.3931 12.9999 19.3452 12.8842C19.2974 12.7684 19.2162 12.6695 19.1121 12.5999C19.008 12.5303 18.8856 12.4931 18.7604 12.493H18.7601C18.5923 12.4931 18.4313 12.5598 18.3126 12.6785C18.1938 12.7972 18.1271 12.9581 18.1269 13.126ZM13.8115 20.238C13.2971 20.2146 13.0175 20.1289 12.8317 20.0565C12.5853 19.9606 12.4095 19.8464 12.2247 19.6618C12.0399 19.4773 11.9255 19.3017 11.83 19.0553C11.7576 18.8696 11.6719 18.5899 11.6485 18.0754C11.6229 17.5192 11.6178 17.3521 11.6178 15.943C11.6178 14.5339 11.6233 14.3673 11.6485 13.8106C11.6719 13.2962 11.7583 13.017 11.83 12.8307C11.9259 12.5843 12.0402 12.4086 12.2247 12.2238C12.4093 12.039 12.5849 11.9246 12.8317 11.8291C13.0174 11.7566 13.2971 11.6709 13.8115 11.6476C14.3678 11.622 14.5348 11.6169 15.9433 11.6169C17.3518 11.6169 17.5191 11.6223 18.0757 11.6476C18.5902 11.6711 18.8693 11.7574 19.0556 11.8292C19.302 11.9246 19.4778 12.0393 19.6626 12.2238C19.8474 12.4084 19.9614 12.5844 20.0573 12.8308C20.1297 13.0165 20.2154 13.2962 20.2388 13.8107C20.2644 14.3674 20.2695 14.534 20.2695 15.9431C20.2695 17.3522 20.2644 17.5188 20.2388 18.0755C20.2154 18.59 20.1292 18.8696 20.0573 19.0554C19.9614 19.3018 19.8471 19.4775 19.6626 19.6619C19.478 19.8463 19.302 19.9607 19.0556 20.0566C18.8699 20.1291 18.5902 20.2147 18.0757 20.2381C17.5195 20.2637 17.3524 20.2688 15.9433 20.2688C14.5342 20.2688 14.3676 20.2637 13.8115 20.2381M13.7679 10.6982C13.2061 10.7238 12.8223 10.8129 12.4871 10.9433C12.1401 11.078 11.846 11.2587 11.5523 11.5519C11.2587 11.8452 11.0784 12.1393 10.9437 12.4867C10.8133 12.8221 10.7242 13.2057 10.6986 13.7675C10.6726 14.3301 10.6667 14.51 10.6667 15.9429C10.6667 17.3759 10.6726 17.5558 10.6986 18.1184C10.7242 18.6802 10.8133 19.0638 10.9437 19.3992C11.0784 19.7461 11.2587 20.0408 11.5523 20.3339C11.846 20.627 12.1397 20.8075 12.4871 20.9425C12.8229 21.073 13.2061 21.1621 13.7679 21.1876C14.3308 21.2132 14.5103 21.2196 15.9433 21.2196C17.3763 21.2196 17.5562 21.2136 18.1188 21.1876C18.6806 21.1621 19.0642 21.073 19.3996 20.9425C19.7465 20.8075 20.0406 20.6271 20.3343 20.3339C20.628 20.0407 20.8079 19.7461 20.9429 19.3992C21.0734 19.0638 21.1629 18.6801 21.188 18.1184C21.2136 17.5553 21.2196 17.3759 21.2196 15.9429C21.2196 14.51 21.2136 14.3301 21.188 13.7675C21.1625 13.2057 21.0734 12.8219 20.9429 12.4867C20.8079 12.1397 20.6275 11.8456 20.3343 11.5519C20.0411 11.2583 19.7465 11.078 19.4 10.9433C19.0642 10.8129 18.6805 10.7234 18.1192 10.6982C17.5565 10.6725 17.3767 10.6663 15.944 10.6663C14.5112 10.6663 14.331 10.6722 13.7681 10.6982" fill="#F5F7FA"/>
</svg>
