<svg width="18" height="21" viewBox="0 0 18 21" fill="none" xmlns="http://www.w3.org/2000/svg">
<path fill-rule="evenodd" clip-rule="evenodd" d="M8.88502 6.99927C7.84579 6.99927 7.0004 7.84465 7.0004 8.88496C7.0004 9.92419 7.84579 10.7685 8.88502 10.7685C9.92425 10.7685 10.7696 9.92419 10.7696 8.88496C10.7696 7.84465 9.92425 6.99927 8.88502 6.99927ZM8.88513 12.384C6.95529 12.384 5.38513 10.815 5.38513 8.88511C5.38513 6.95419 6.95529 5.38403 8.88513 5.38403C10.815 5.38403 12.3851 6.95419 12.3851 8.88511C12.3851 10.815 10.815 12.384 8.88513 12.384Z" fill="#56616F"/>
<mask id="mask0_0_327" style="mask-type:luminance" maskUnits="userSpaceOnUse" x="0" y="-1" width="18" height="22">
<path fill-rule="evenodd" clip-rule="evenodd" d="M0 -0.000488281H17.7687V20.9995H0V-0.000488281Z" fill="white"/>
</mask>
<g mask="url(#mask0_0_327)">
<path fill-rule="evenodd" clip-rule="evenodd" d="M8.88409 1.6149C4.87578 1.6149 1.61486 4.90705 1.61486 8.95197C1.61486 14.0986 7.67147 19.1127 8.88409 19.3798C10.0967 19.1117 16.1533 14.0975 16.1533 8.95197C16.1533 4.90705 12.8924 1.6149 8.88409 1.6149ZM8.88413 20.9995C6.95213 20.9995 -0.000488281 15.0204 -0.000488281 8.95197C-0.000488281 4.01536 3.9852 -0.000488281 8.88413 -0.000488281C13.783 -0.000488281 17.7687 4.01536 17.7687 8.95197C17.7687 15.0204 10.8161 20.9995 8.88413 20.9995Z" fill="#56616F"/>
</g>
</svg>
