<svg width="19" height="17" viewBox="0 0 19 17" fill="none" xmlns="http://www.w3.org/2000/svg">
<path fill-rule="evenodd" clip-rule="evenodd" d="M9.8141 10.2203C9.2566 10.2203 8.70076 10.0361 8.23576 9.66775L4.49826 6.65442C4.2291 6.43775 4.18743 6.04359 4.40326 5.77525C4.62076 5.50775 5.0141 5.46525 5.28243 5.68109L9.0166 8.69109C9.48576 9.06275 10.1466 9.06275 10.6191 8.68775L14.3158 5.68275C14.5841 5.46359 14.9774 5.50525 15.1958 5.77359C15.4133 6.04109 15.3724 6.43442 15.1049 6.65275L11.4016 9.66275C10.9333 10.0344 10.3733 10.2203 9.8141 10.2203Z" fill="#56616F"/>
<mask id="mask0_0_317" style="mask-type:luminance" maskUnits="userSpaceOnUse" x="0" y="0" width="19" height="17">
<path fill-rule="evenodd" clip-rule="evenodd" d="M0.833344 0.66626H18.7499V16.9163H0.833344V0.66626Z" fill="white"/>
</mask>
<g mask="url(#mask0_0_317)">
<path fill-rule="evenodd" clip-rule="evenodd" d="M5.69909 15.6663H13.8824C13.8841 15.6646 13.8908 15.6663 13.8958 15.6663C14.8466 15.6663 15.6899 15.3263 16.3366 14.6804C17.0874 13.9329 17.4999 12.8588 17.4999 11.6563V5.93293C17.4999 3.60543 15.9783 1.91626 13.8824 1.91626H5.70075C3.60492 1.91626 2.08325 3.60543 2.08325 5.93293V11.6563C2.08325 12.8588 2.49659 13.9329 3.24659 14.6804C3.89325 15.3263 4.73742 15.6663 5.68742 15.6663H5.69909ZM5.68492 16.9163C4.39908 16.9163 3.25075 16.4496 2.36409 15.5663C1.37659 14.5813 0.833252 13.1929 0.833252 11.6563V5.93293C0.833252 2.93043 2.92575 0.66626 5.70075 0.66626H13.8824C16.6574 0.66626 18.7499 2.93043 18.7499 5.93293V11.6563C18.7499 13.1929 18.2066 14.5813 17.2191 15.5663C16.3332 16.4488 15.1841 16.9163 13.8958 16.9163H13.8824H5.70075H5.68492Z" fill="#56616F"/>
</g>
</svg>
