<svg width="21" height="20" viewBox="0 0 21 20" fill="none" xmlns="http://www.w3.org/2000/svg">
<path d="M16.4189 12.32C16.1599 12.571 16.0409 12.934 16.0999 13.29L16.9889 18.21C17.0639 18.627 16.8879 19.049 16.5389 19.29C16.1969 19.54 15.7419 19.57 15.3689 19.37L10.9399 17.06C10.7859 16.978 10.6149 16.934 10.4399 16.929H10.1689C10.0749 16.943 9.98288 16.973 9.89888 17.019L5.46888 19.34C5.24988 19.45 5.00188 19.489 4.75888 19.45C4.16688 19.338 3.77188 18.774 3.86888 18.179L4.75888 13.259C4.81788 12.9 4.69888 12.535 4.43988 12.28L0.828876 8.78C0.526876 8.487 0.421876 8.047 0.559876 7.65C0.693876 7.254 1.03588 6.965 1.44888 6.9L6.41888 6.179C6.79688 6.14 7.12888 5.91 7.29888 5.57L9.48888 1.08C9.54088 0.98 9.60788 0.888 9.68888 0.81L9.77888 0.74C9.82588 0.688 9.87988 0.645 9.93988 0.61L10.0489 0.57L10.2189 0.5H10.6399C11.0159 0.539 11.3469 0.764 11.5199 1.1L13.7389 5.57C13.8989 5.897 14.2099 6.124 14.5689 6.179L19.5389 6.9C19.9589 6.96 20.3099 7.25 20.4489 7.65C20.5799 8.051 20.4669 8.491 20.1589 8.78L16.4189 12.32Z" fill="#D8F0E1"/>
</svg>
