<svg width="18" height="17" viewBox="0 0 18 17" fill="none" xmlns="http://www.w3.org/2000/svg">
<path fill-rule="evenodd" clip-rule="evenodd" d="M9 1.41675C5.09417 1.41675 1.91667 4.59425 1.91667 8.50008C1.91667 12.4059 5.09417 15.5834 9 15.5834C12.9058 15.5834 16.0833 12.4059 16.0833 8.50008C16.0833 4.59425 12.9058 1.41675 9 1.41675ZM9 16.8334C4.405 16.8334 0.666667 13.0951 0.666667 8.50008C0.666667 3.90508 4.405 0.166748 9 0.166748C13.595 0.166748 17.3333 3.90508 17.3333 8.50008C17.3333 13.0951 13.595 16.8334 9 16.8334Z" fill="#309255"/>
<path fill-rule="evenodd" clip-rule="evenodd" d="M11.8593 11.577C11.7502 11.577 11.6402 11.5487 11.5393 11.4895L8.39767 9.61534C8.20933 9.50201 8.09267 9.29784 8.09267 9.07784V5.03784C8.09267 4.69284 8.37267 4.41284 8.71767 4.41284C9.0635 4.41284 9.34267 4.69284 9.34267 5.03784V8.72284L12.1802 10.4145C12.476 10.592 12.5735 10.9753 12.3968 11.272C12.2793 11.4678 12.0718 11.577 11.8593 11.577Z" fill="#309255"/>
</svg>
