<svg width="32" height="32" viewBox="0 0 32 32" fill="none" xmlns="http://www.w3.org/2000/svg">
<circle cx="16" cy="15.9995" r="15.5" stroke="#309255"/>
<path d="M22.0377 12.7865C22.0439 12.9273 22.0439 13.0617 22.0439 13.2025C22.0501 17.4713 18.9138 22.3994 13.1783 22.3994C11.4866 22.3994 9.82588 21.8938 8.39972 20.9466C8.64667 20.9786 8.89363 20.9914 9.14058 20.9914C10.542 20.9914 11.9065 20.505 13.0116 19.6026C11.678 19.577 10.505 18.6746 10.0975 17.3561C10.5667 17.4521 11.0483 17.4329 11.5052 17.2985C10.0543 17.0041 9.01093 15.6793 9.00476 14.1369C9.00476 14.1241 9.00476 14.1113 9.00476 14.0985C9.43692 14.3481 9.92466 14.4889 10.4186 14.5017C9.05415 13.5545 8.62815 11.6665 9.45545 10.1881C11.0421 12.2105 13.3758 13.4329 15.8824 13.5673C15.6293 12.4473 15.975 11.2697 16.7838 10.4761C18.0371 9.25372 20.0127 9.31772 21.1981 10.6169C21.8957 10.4761 22.5687 10.2073 23.1799 9.82972C22.9453 10.5785 22.4576 11.2121 21.8093 11.6153C22.4267 11.5385 23.0317 11.3657 23.5997 11.1097C23.1799 11.7625 22.6489 12.3257 22.0377 12.7865Z" fill="#309255"/>
</svg>
