<svg width="284" height="40" viewBox="0 0 284 40" fill="none" xmlns="http://www.w3.org/2000/svg">
<path d="M39.4365 19.9721C39.4365 9.07531 48.4082 0.262817 59.6258 0.262817C70.9219 0.262817 79.896 9.0802 79.896 19.9721C79.896 30.7881 70.9219 39.7623 59.6258 39.7623C48.4082 39.7623 39.4365 30.7783 39.4365 19.9721ZM70.2018 19.9721C70.2018 14.5249 65.4747 9.71701 59.6258 9.71701C53.8578 9.71701 49.1307 14.5249 49.1307 19.9721C49.1307 25.5001 53.8578 30.3081 59.6258 30.3081C65.4845 30.3081 70.2018 25.5001 70.2018 19.9721Z" fill="#0056D2"/>
<path d="M243.031 20.293C243.031 8.35522 252.725 0.262817 261.54 0.262817C267.548 0.262817 270.994 2.10467 273.316 5.63163L274.239 0.978005H283.25V39.0397H274.239L273.076 35.1209C270.433 38.0061 267.146 39.7745 261.54 39.7745C252.887 39.7623 243.031 32.1499 243.031 20.293ZM273.796 20.2122C273.785 17.4189 272.665 14.7444 270.683 12.7768C268.7 10.8093 266.017 9.70997 263.224 9.72069C260.431 9.73141 257.756 10.8513 255.788 12.834C253.821 14.8167 252.722 17.4998 252.732 20.293C252.732 25.581 257.459 30.3081 263.23 30.3081C269.071 30.3081 273.796 25.581 273.796 20.2122Z" fill="#0056D2"/>
<path d="M231.958 5.38941V0.980722H222.104V39.04H231.958V18.5322C231.958 12.3625 235.005 9.15885 240.285 9.15885C240.635 9.15885 240.969 9.18334 241.294 9.21518L243.121 0.0279541C237.985 0.0548961 234.262 1.81592 231.958 5.38941Z" fill="#0056D2"/>
<path d="M132.94 5.39073V0.982039L123.087 1.00408L123.17 39.0585L133.024 39.0364L132.97 18.5311C132.955 12.3638 135.995 9.15282 141.28 9.14057C141.617 9.14156 141.954 9.16036 142.289 9.19691L144.107 -0.00012207C138.963 0.0415156 135.235 1.80989 132.94 5.39073Z" fill="#0056D2"/>
<path d="M83.3112 24.2978V0.983154H93.1621V23.0977C93.1621 27.984 95.8857 30.8692 100.613 30.8692C105.901 30.8692 108.94 27.6631 108.94 21.4934V0.983154H118.796V39.04H108.948V34.6313C106.626 38.2366 102.859 40.0001 97.6517 40.0001C88.8392 40.0025 83.3112 33.5928 83.3112 24.2978Z" fill="#0056D2"/>
<path d="M179.258 20.0163C179.28 9.35946 186.908 0.240814 199.005 0.262857C210.222 0.284901 218.136 9.27129 218.109 19.857C218.111 20.9037 218.029 21.9488 217.864 22.9823L188.862 22.9284C189.974 27.4963 193.734 30.7882 199.423 30.8004C202.867 30.8004 206.556 29.5317 208.804 26.6513L215.525 32.0397C212.069 36.9211 205.973 39.7941 199.487 39.7819C188.037 39.7427 179.239 31.1531 179.258 20.0163ZM208.189 16.0631C207.636 12.2178 203.636 9.24435 198.909 9.237C194.341 9.237 190.652 11.9459 189.203 16.0288L208.189 16.0631Z" fill="#0056D2"/>
<path d="M144.165 30.7436L152.924 26.1586C154.371 29.2961 157.266 31.1453 161.369 31.1453C165.148 31.1453 166.596 29.9402 166.596 28.2502C166.596 22.127 145.848 25.8377 145.848 11.8401C145.848 4.11998 152.603 0.0198975 160.965 0.0198975C167.318 0.0198975 172.947 2.83411 176.003 8.06086L167.323 12.6533C166.037 10.0791 163.625 8.63155 160.568 8.63155C157.595 8.63155 156.145 9.67739 156.145 11.4458C156.145 17.3975 176.893 13.6183 176.893 27.8559C176.893 35.2552 170.862 39.7569 161.131 39.7569C152.848 39.7496 147.058 37.0162 144.165 30.7436Z" fill="#0056D2"/>
<path d="M0.309937 19.9725C0.309937 8.99732 9.28163 0.182384 20.4993 0.182384C23.8722 0.158744 27.1979 0.974701 30.1768 2.55672C33.1557 4.13874 35.6941 6.43711 37.5634 9.2447L29.1526 14.1237C28.1794 12.733 26.884 11.5985 25.3772 10.8171C23.8703 10.0357 22.1967 9.6307 20.4993 9.63658C14.7313 9.63658 10.0042 14.4445 10.0042 19.9725C10.0042 25.5005 14.7313 30.3085 20.4993 30.3085C22.2767 30.32 24.0275 29.8758 25.5844 29.0182C27.1413 28.1607 28.4524 26.9184 29.3926 25.4099L37.7202 30.377C35.8737 33.2668 33.3257 35.642 30.3137 37.2814C27.3017 38.9208 23.9236 39.7711 20.4944 39.7529C9.28163 39.7627 0.309937 30.7787 0.309937 19.9725Z" fill="#0056D2"/>
</svg>
