<svg width="180" height="56" viewBox="0 0 180 56" fill="none" xmlns="http://www.w3.org/2000/svg">
<path d="M23.1464 19.9817V25.9635H37.5823C37.199 29.2726 36.0493 31.8181 34.2608 33.4726C32.2168 35.509 28.8952 37.7999 23.1464 37.7999C14.3316 37.7999 7.43308 30.6726 7.43308 21.8908C7.43308 13.109 14.2039 5.9817 23.1464 5.9817C27.8732 5.9817 31.4502 7.89079 34.0053 10.309L38.221 6.10897C34.644 2.67261 29.7895 -0.00012207 23.1464 -0.00012207C11.0101 -0.00012207 0.790039 9.79988 0.790039 21.8908C0.790039 33.9817 11.0101 43.7817 23.1464 43.7817C29.6617 43.7817 34.644 41.6181 38.4765 37.6726C42.4368 33.7271 43.7143 28.1272 43.7143 23.6726C43.7143 22.2726 43.5866 20.9999 43.4588 19.9817H23.1464Z" fill="#4285F4"/>
<path d="M61.5994 15.0181C53.8066 15.0181 47.2914 20.9999 47.2914 29.1453C47.2914 37.2908 53.6789 43.2726 61.5994 43.2726C69.52 43.2726 75.9075 37.4181 75.9075 29.2726C75.9075 20.9999 69.52 15.0181 61.5994 15.0181ZM61.5994 37.7999C57.2559 37.7999 53.5511 34.2362 53.5511 29.2726C53.5511 24.1817 57.2559 20.7453 61.5994 20.7453C65.943 20.7453 69.6478 24.1817 69.6478 29.2726C69.6478 34.2362 65.943 37.7999 61.5994 37.7999Z" fill="#EA4335"/>
<path d="M131.479 18.1999H131.224C129.818 16.5453 127.136 15.0181 123.686 15.0181C116.532 15.0181 110.4 21.1272 110.4 29.1453C110.4 37.0362 116.532 43.2726 123.686 43.2726C127.136 43.2726 129.818 41.7453 131.224 40.0908H131.479V42.1272C131.479 47.4726 128.541 50.3999 123.942 50.3999C120.109 50.3999 117.81 47.7271 116.788 45.309L111.422 47.5999C112.955 51.2908 117.171 55.9999 124.07 55.9999C131.351 55.9999 137.611 51.6726 137.611 41.2362V15.7817H131.735V18.1999H131.479ZM124.325 37.7999C119.982 37.7999 116.788 34.109 116.788 29.2726C116.788 24.309 120.109 20.7453 124.325 20.7453C128.541 20.7453 131.862 24.4362 131.862 29.3999C131.99 34.2362 128.669 37.7999 124.325 37.7999Z" fill="#4285F4"/>
<path d="M93.4094 15.0181C85.6166 15.0181 79.1013 20.9999 79.1013 29.1453C79.1013 37.2908 85.4888 43.2726 93.4094 43.2726C101.33 43.2726 107.717 37.4181 107.717 29.2726C107.717 20.9999 101.33 15.0181 93.4094 15.0181ZM93.4094 37.7999C89.0659 37.7999 85.3611 34.2362 85.3611 29.2726C85.3611 24.1817 89.0659 20.7453 93.4094 20.7453C97.7529 20.7453 101.458 24.1817 101.458 29.2726C101.458 34.2362 97.7529 37.7999 93.4094 37.7999Z" fill="#FBBC05"/>
<path d="M142.338 0.63623H148.47V43.3999H142.338V0.63623Z" fill="#34A853"/>
<path d="M167.377 37.7999C164.183 37.7999 162.012 36.3999 160.479 33.4726L179.513 25.709L178.875 24.0544C177.725 20.8726 174.02 15.0181 166.738 15.0181C159.457 15.0181 153.325 20.7453 153.325 29.1453C153.325 37.0362 159.329 43.2726 167.377 43.2726C173.892 43.2726 177.597 39.3272 179.258 37.0362L174.403 33.8544C172.743 36.2726 170.571 37.7999 167.377 37.7999ZM166.994 20.3635C169.549 20.3635 171.721 21.6362 172.359 23.4181L159.584 28.7635C159.457 22.909 163.8 20.3635 166.994 20.3635Z" fill="#EA4335"/>
</svg>
