<svg width="172" height="64" viewBox="0 0 172 64" fill="none" xmlns="http://www.w3.org/2000/svg">
<path d="M26.6871 15.2704L13.3424 7.63522L0 15.2704V7.63522L13.3446 0L26.6893 7.63522V15.2704H26.6871Z" fill="#A435F0"/>
<path d="M0 21.6807H6.98981V38.5105C6.98981 42.8603 10.2662 44.9788 13.3446 44.9788C16.4466 44.9788 19.6994 42.8027 19.6994 38.4529V21.6807H26.6893V38.9115C26.6893 42.9179 25.419 46.0092 22.8767 48.1276C20.3344 50.246 17.1571 51.2764 13.2865 51.2764C9.41591 51.2764 6.23854 50.246 3.75432 48.1276C1.27009 46.0092 0 43.0331 0 39.0823V21.6807Z" fill="black"/>
<path d="M87.12 42.5989C85.004 44.4655 82.5929 45.3807 79.8439 45.3807C74.8323 45.3807 71.4678 42.5497 71.0888 38.1657H93.675C93.675 38.1657 93.8236 36.7492 93.8236 35.4201C93.8236 31.2985 92.4954 27.8638 89.7808 25.0584C87.1244 22.2532 83.6585 20.8794 79.4414 20.8794C74.9939 20.8794 71.3536 22.2532 68.4647 25.0584C65.634 27.8638 64.1895 31.5268 64.1895 36.1071V36.3353C64.1895 40.8581 65.634 44.4633 68.4647 47.1557C71.2955 49.8457 75.0498 51.2197 79.6135 51.2197C84.92 51.2197 89.1436 49.1461 92.3123 45.5685L87.12 42.5989ZM73.8358 28.5508C75.3942 27.3476 77.3016 26.7182 79.4392 26.7182C81.4606 26.7182 83.1354 27.3476 84.5799 28.6084C85.9598 29.7561 86.7045 31.1662 86.7692 32.7876H71.2653C71.4893 31.1129 72.3439 29.7006 73.8358 28.5508Z" fill="black"/>
<path d="M157.485 55.108C154.646 61.7426 151.679 63.9996 147.131 63.9996C146.351 63.9996 143.979 63.9996 143.979 63.9996V57.86C143.979 57.86 144.963 57.86 146.528 57.86C148.093 57.86 149.548 57.2776 150.935 54.1052C152.321 50.933 152.321 50.933 152.321 50.933L140.363 21.6807H147.469L155.961 42.7473L164.684 21.6807H171.79C171.788 21.6807 160.407 48.2791 157.485 55.108Z" fill="black"/>
<path d="M53.9015 10.6332V24.295C51.611 22.2598 48.0482 21.0502 44.6018 21.0502C40.5009 21.0502 37.0351 22.4818 34.2043 25.4002C31.4316 28.263 30.0453 31.8108 30.0453 36.1052C30.0453 40.3996 31.4316 43.9474 34.2043 46.8679C37.0351 49.7309 40.5009 51.1623 44.6018 51.1623C49.3334 51.1623 52.3214 49.3213 53.9015 47.8771V50.5331H60.8331V10.6332H53.9015ZM51.822 42.405C50.1471 44.0647 48.0095 44.9245 45.5252 44.9245C43.041 44.9245 41.0196 44.0647 39.3449 42.405C37.7282 40.7452 36.9187 38.6268 36.9187 36.1074C36.9187 33.5878 37.7282 31.4694 39.3449 29.8098C41.0196 28.15 43.041 27.2902 45.5252 27.2902C48.0095 27.2902 50.1471 28.15 51.822 29.8098C53.5549 31.4694 54.4225 33.5878 54.4225 36.1074C54.4225 38.6268 53.5549 40.7452 51.822 42.405Z" fill="black"/>
<path d="M129.586 21.1096C124.321 21.1096 121.582 23.275 119.707 25.3592C118.958 23.9426 116.846 21.1096 111.91 21.1096C107.741 21.1096 105.28 23.1982 104.055 24.6872V21.6834H97.1815V50.5347H104.055V33.9331C104.055 30.0398 106.481 27.2344 109.717 27.2344C113.01 27.2344 114.915 29.6963 114.915 33.6451V50.5327H121.789V33.931C121.789 29.98 124.157 27.2322 127.565 27.2322C130.858 27.2322 132.764 29.6942 132.764 33.643V50.5305H139.695V32.6702C139.695 25.148 135.616 21.1096 129.586 21.1096Z" fill="black"/>
</svg>
