<svg width="208" height="46" viewBox="0 0 208 46" fill="none" xmlns="http://www.w3.org/2000/svg">
<path d="M65.0877 7.18297C64.3293 4.35579 62.0948 2.12892 59.2571 1.37331C54.1136 6.86646e-05 33.4896 6.86646e-05 33.4896 6.86646e-05C33.4896 6.86646e-05 12.8658 6.86646e-05 7.72243 1.37331C4.885 2.12892 2.65005 4.35579 1.8917 7.18297C0.513489 12.3078 0.513489 22.9998 0.513489 22.9998C0.513489 22.9998 0.513489 33.6924 1.8917 38.8169C2.65005 41.6439 4.885 43.871 7.72243 44.6264C12.8658 46 33.4896 46 33.4896 46C33.4896 46 54.1136 46 59.2571 44.6264C62.0948 43.871 64.3293 41.6439 65.0877 38.8169C66.4661 33.6924 66.4661 22.9998 66.4661 22.9998C66.4661 22.9998 66.4661 12.3078 65.0877 7.18297Z" fill="#ED1D24"/>
<path d="M26.8944 32.8572L44.0289 23.0002L26.8944 13.1429V32.8572Z" fill="white"/>
<path d="M103.554 37.3362C103.915 36.397 104.096 34.8619 104.096 32.7316V23.7553C104.096 21.6877 103.915 20.1765 103.554 19.2207C103.192 18.2653 102.556 17.7872 101.644 17.7872C100.763 17.7872 100.142 18.2653 99.7809 19.2207C99.4193 20.1765 99.2385 21.6877 99.2385 23.7553V32.7316C99.2385 34.8619 99.4112 36.397 99.7575 37.3362C100.103 38.2765 100.731 38.746 101.644 38.746C102.556 38.746 103.192 38.2765 103.554 37.3362ZM96.244 41.8479C94.9383 40.9716 94.0105 39.6083 93.4611 37.7592C92.9106 35.9114 92.6359 33.4519 92.6359 30.3816V26.1991C92.6359 23.0977 92.9497 20.6068 93.5789 18.7272C94.2076 16.8475 95.1897 15.4773 96.5268 14.6154C97.8629 13.7542 99.6158 13.3231 101.786 13.3231C103.924 13.3231 105.637 13.762 106.926 14.6388C108.215 15.5159 109.159 16.8871 109.756 18.7507C110.353 20.615 110.652 23.0977 110.652 26.1991V30.3816C110.652 33.4519 110.361 35.9195 109.78 37.7831C109.198 39.6472 108.254 41.0103 106.95 41.8713C105.645 42.7328 103.876 43.1638 101.644 43.1638C99.3482 43.1638 97.548 42.7247 96.244 41.8479Z" fill="#252323"/>
<path d="M197.243 18.3258C196.913 18.7331 196.692 19.3989 196.582 20.3227C196.472 21.2471 196.418 22.6489 196.418 24.5286V26.5964H201.181V24.5286C201.181 22.6806 201.118 21.2786 200.992 20.3227C200.866 19.3674 200.639 18.6942 200.309 18.3023C199.978 17.9106 199.467 17.7147 198.776 17.7147C198.084 17.7147 197.573 17.9188 197.243 18.3258ZM196.418 30.45V31.9069C196.418 33.7558 196.472 35.1419 196.582 36.0657C196.692 36.9901 196.92 37.6637 197.267 38.0869C197.612 38.5093 198.146 38.7212 198.87 38.7212C199.844 38.7212 200.513 38.3451 200.875 37.5929C201.236 36.8411 201.432 35.5882 201.464 33.8333L207.076 34.1625C207.108 34.4139 207.124 34.7584 207.124 35.1961C207.124 37.8596 206.393 39.8492 204.93 41.1649C203.469 42.4802 201.401 43.1384 198.729 43.1384C195.522 43.1384 193.273 42.1362 191.984 40.1306C190.694 38.1264 190.05 35.0246 190.05 30.8261V25.7975C190.05 21.4741 190.718 18.3184 192.055 16.3281C193.391 14.339 195.679 13.3442 198.917 13.3442C201.149 13.3442 202.863 13.7516 204.058 14.5659C205.252 15.3811 206.094 16.6499 206.581 18.3725C207.069 20.0958 207.313 22.4771 207.313 25.5156V30.45H196.418Z" fill="#252323"/>
<path d="M80.3949 29.9105L72.99 3.26484H79.4514L82.0453 15.3424C82.706 18.3193 83.193 20.8569 83.5073 22.9553H83.6962C83.9161 21.4517 84.4036 18.93 85.1582 15.3895L87.8466 3.26484H94.308L86.8091 29.9105V42.6936H80.3949V29.9105Z" fill="#252323"/>
<path d="M131.667 13.8865V42.6936H126.573L126.007 39.1692H125.866C124.482 41.8319 122.407 43.1631 119.64 43.1631C117.722 43.1631 116.307 42.5372 115.395 41.2836C114.483 40.0312 114.028 38.0725 114.028 35.4095V13.8865H120.537V35.0334C120.537 36.3187 120.678 37.2347 120.961 37.7826C121.244 38.3313 121.716 38.605 122.376 38.605C122.942 38.605 123.484 38.4332 124.003 38.0877C124.522 37.7433 124.907 37.3055 125.159 36.7726V13.8865H131.667Z" fill="#252323"/>
<path d="M165.053 13.8865V42.6936H159.959L159.393 39.1692H159.252C157.867 41.8319 155.792 43.1631 153.026 43.1631C151.108 43.1631 149.693 42.5372 148.781 41.2836C147.869 40.0312 147.413 38.0725 147.413 35.4095V13.8865H153.922V35.0334C153.922 36.3187 154.063 37.2347 154.346 37.7826C154.629 38.3313 155.101 38.605 155.761 38.605C156.327 38.605 156.87 38.4332 157.388 38.0877C157.907 37.7433 158.292 37.3055 158.544 36.7726V13.8865H165.053Z" fill="#252323"/>
<path d="M149.353 8.48219H142.892V42.6936H136.525V8.48219H130.064V3.2657H149.353V8.48219Z" fill="#252323"/>
<path d="M180.628 30.2419C180.628 32.3411 180.541 33.986 180.368 35.1761C180.195 36.3674 179.904 37.213 179.496 37.7137C179.087 38.2152 178.536 38.4656 177.845 38.4656C177.31 38.4656 176.815 38.3409 176.359 38.0895C175.903 37.8391 175.534 37.4633 175.251 36.9615V20.6079C175.471 19.8253 175.848 19.1827 176.383 18.6813C176.918 18.1808 177.498 17.9295 178.128 17.9295C178.788 17.9295 179.299 18.1882 179.661 18.7048C180.022 19.2216 180.274 20.0911 180.415 21.3133C180.557 22.5348 180.628 24.2736 180.628 26.5291V30.2419ZM186.594 18.4914C186.2 16.6748 185.564 15.3591 184.683 14.5439C183.803 13.73 182.592 13.3224 181.052 13.3224C179.857 13.3224 178.741 13.6594 177.704 14.3326C176.666 15.0064 175.864 15.8916 175.298 16.988H175.25L175.251 1.8088H168.978V42.693H174.355L175.015 39.9679H175.156C175.659 40.9388 176.414 41.7064 177.42 42.2704C178.426 42.8341 179.543 43.1162 180.769 43.1162C182.97 43.1162 184.589 42.1056 185.627 40.0851C186.664 38.0641 187.183 34.9083 187.183 30.6159V26.0575C187.183 22.831 186.986 20.309 186.594 18.4914Z" fill="#252323"/>
</svg>
